<svg xmlns="http://www.w3.org/2000/svg" width="8" height="8" viewBox="0 0 8 8"><defs><clipPath id="44k2a"><path fill="#fff" d="M4 0a4 4 0 1 1 0 8 4 4 0 0 1 0-8z"/></clipPath></defs><g><g><path fill="#53b1ed" d="M4 0a4 4 0 1 1 0 8 4 4 0 0 1 0-8z"/><path fill="#fafdfe" d="M4 0a4 4 0 1 1 0 8 4 4 0 0 1 0-8z"/><path fill="none" stroke="#2a89e9" stroke-linecap="round" stroke-linejoin="round" stroke-miterlimit="20" stroke-width="4" d="M4 0a4 4 0 1 1 0 8 4 4 0 0 1 0-8z" clip-path="url(&quot;#44k2a&quot;)"/></g></g></svg>